<?xml version="1.0" encoding="utf-8"?>
<!-- Uploaded to: SVG Repo, www.svgrepo.com, Generator: SVG Repo Mixer Tools -->
<svg fill="#000000" version="1.1" id="Layer_1" xmlns="http://www.w3.org/2000/svg" xmlns:xlink="http://www.w3.org/1999/xlink" 
	 width="800px" height="800px" viewBox="0 0 160 256" enable-background="new 0 0 160 256" xml:space="preserve">
<path d="M79.73,1.5C36.8,1.5,2,36.29,2,79.23C2,90,4.24,102.96,8.16,112.3c18.08,43.13,71.57,141.2,71.57,141.2
	s53.49-97.93,71.57-141.06c3.92-9.35,6.16-22.44,6.16-33.21C157.46,36.29,122.66,1.5,79.73,1.5z M117.12,76.01l-6.89-6.07V120h-61
	V69.57l-6.69,6.07l-6.59-7.47l43.37-39.04l12.91,11.86V31h12v20.27l19.97,17.46L117.12,76.01z M87.23,98h-16V82h16V98z"/>
</svg>