<?xml version="1.0" encoding="UTF-8" standalone="no"?>
<!-- Uploaded to: SVG Repo, www.svgrepo.com, Generator: SVG Repo Mixer Tools -->

<svg
   fill="#000000"
   version="1.1"
   id="Layer_1"
   width="800px"
   height="800px"
   viewBox="0 0 160 256"
   enable-background="new 0 0 160 256"
   xml:space="preserve"
   sodipodi:docname="map.svg"
   inkscape:version="1.2.2 (732a01da63, 2022-12-09, custom)"
   xmlns:inkscape="http://www.inkscape.org/namespaces/inkscape"
   xmlns:sodipodi="http://sodipodi.sourceforge.net/DTD/sodipodi-0.dtd"
   xmlns="http://www.w3.org/2000/svg"
   xmlns:svg="http://www.w3.org/2000/svg"><defs
   id="defs23" /><sodipodi:namedview
   id="namedview21"
   pagecolor="#ffffff"
   bordercolor="#666666"
   borderopacity="1.0"
   inkscape:showpageshadow="2"
   inkscape:pageopacity="0.0"
   inkscape:pagecheckerboard="0"
   inkscape:deskcolor="#d1d1d1"
   showgrid="false"
   inkscape:zoom="2.1221115"
   inkscape:cx="400.07324"
   inkscape:cy="297.10975"
   inkscape:window-width="1848"
   inkscape:window-height="1016"
   inkscape:window-x="72"
   inkscape:window-y="27"
   inkscape:window-maximized="1"
   inkscape:current-layer="Layer_1" />
<path
   id="path18"
   style="fill:#d4aa00;stroke-width:1.00045"
   d="M 79.660625,1.5 C 36.692539,1.5 1.86125,36.290215 1.86125,79.23 c 0,10.769945 2.2421473,23.73005 6.165625,33.07 18.09604,43.1298 71.63375,141.2 71.63375,141.2 0,0 53.537705,-97.9302 71.633755,-141.06 C 155.21786,103.09005 157.46,89.999945 157.46,79.23 157.46,36.290215 122.62872,1.5 79.660625,1.5 Z M 90.78875,28.32375 c 0.32897,0.806974 0.121789,0.290927 0.444375,1.30875 0.0074,0.0032 0.01506,0.0061 0.0225,0.0094 0.547024,0.243525 0.51219,1.082896 0.7225,1.643125 0.03103,0.08265 0.06112,0.165832 0.09125,0.24875 0.03504,-0.01845 0.06848,-0.03355 0.1025,-0.05 V 31 H 104.1825 v 20.27 l 19.98813,17.46 -6.22375,6.39375 c 0.51137,0.485927 0.62531,1.080899 -0.52126,2.075625 0.093,0.05805 0.12894,0.109011 0.035,0.148125 -0.0251,0.01044 -0.0464,0.01908 -0.07,0.02875 0.64961,0.485348 1.30678,0.960679 1.97688,1.419375 0.54946,0.460207 1.08018,0.94346 1.64812,1.380625 0.1783,0.137232 0.35799,0.254256 0.52876,0.361875 0.26855,0.05889 0.51119,0.125766 0.48562,0.310625 0.73071,0.505464 0.85335,0.978159 -1.3675,2.72625 -0.35348,0.278234 -0.81209,-0.389647 -1.2025,-0.613125 -1.11858,-0.640292 -4.66887,-2.844991 -5.57875,-3.40625 -1.03306,-0.637246 -1.36701,-1.428795 -1.22875,-2.038125 -0.38441,-0.303805 -0.76849,-0.608342 -1.15312,-0.911875 0.47239,1.174895 -0.25179,2.102159 -1.31125,1.965625 V 120 H 49.13375 V 79.30375 c -0.432538,0.111175 -0.843519,-0.0039 -1.136875,-0.28875 -0.493741,0.09162 -0.868475,0.09004 -1.29875,0.34625 -1.031234,0.315477 -0.565077,0.2569 0.764375,-1.18375 0.0392,-0.04247 0.07406,-0.08152 0.106875,-0.11875 -0.01212,-0.125418 -0.01206,-0.258169 0,-0.3975 -0.342933,0.137268 -0.953174,0.482365 -1.560625,0.804375 -0.284091,0.326879 -0.568997,0.652873 -0.859375,0.973125 -2.049828,2.260722 -1.484136,1.782551 -3.570625,2.869375 -0.727475,-0.434305 -1.775027,-0.560724 -2.1825,-1.303125 -0.423473,-0.771554 0.735329,-2.361016 1.069375,-3.018125 0.180344,-0.354763 0.306393,-0.735612 0.48375,-1.091875 0.110682,-0.222333 0.208202,-0.41561 0.296875,-0.589375 -0.813939,-0.07498 -1.24468,-0.887922 -0.47125,-2.2775 0.03095,-0.05561 0.06047,-0.112009 0.09063,-0.168125 L 35.841875,68.17 79.25,29.13 89.45125,38.493125 c 0.01333,-0.449517 0.03215,-0.898579 0.08875,-1.344375 0.08217,-0.647216 0.235818,-1.284101 0.399375,-1.91625 -0.373465,-1.156258 -0.766312,-2.30662 -1.158125,-3.456875 -0.262981,-0.369424 -0.506482,-0.735576 -0.378125,-1.115 -0.127304,-0.378075 -0.254437,-0.756566 -0.37875,-1.135625 0.435259,0.01568 0.885955,-0.03305 1.333125,-0.06875 0.469313,-0.382558 1.007464,-0.720157 1.43125,-1.1325 z m -42.3175,47.138125 c -0.01994,0.0046 -0.04324,0.01075 -0.06375,0.01563 -0.08262,0.11256 -0.162426,0.227035 -0.24625,0.33875 0.04848,-0.0149 0.09722,-0.0296 0.14625,-0.04375 0.06207,-0.118243 0.117294,-0.222822 0.16375,-0.310625 z m -5.47,0.546875 c -0.01193,0.04037 -0.02458,0.08475 -0.04125,0.1425 0.0055,-0.01076 0.04328,-0.08499 0.05188,-0.101875 -0.0034,-0.01366 -0.0072,-0.02683 -0.01063,-0.04062 z m -1.586875,1.621875 c -0.245742,0.02241 -0.580841,0.533236 -1.0675,1.92875 1.058947,-0.271005 0.90134,-0.175208 1.57875,-1.0025 -0.123604,-0.522786 -0.276519,-0.947652 -0.51125,-0.92625 z M 71.153125,82 V 98 H 87.1675 V 82 Z" /><path
   d="m 79.878576,13.241516 c -37.291089,0 -67.520064,30.083973 -67.520064,67.2155 0,9.313147 1.945773,20.520054 5.350877,28.596624 15.705167,37.29583 62.169187,122.09996 62.169187,122.09996 0,0 46.464014,-84.68307 62.169184,-121.97889 3.4051,-8.08523 5.35088,-19.404547 5.35088,-28.717694 0,-37.131527 -30.22898,-67.2155 -67.520064,-67.2155 z m 32.478774,64.431068 -5.98498,-5.248914 v 43.2884 H 53.384791 V 72.10372 l -5.81126,5.248914 -5.724396,-6.459537 37.673294,-33.759077 11.21426,10.255704 v -8.638659 h 10.423781 v 17.528088 l 17.34691,15.098194 z M 86.393446,96.688008 H 72.495062 V 82.852319 h 13.898384 z"
   id="path18-3"
   style="fill:#000080;stroke-width:0.866688" />
<path
   style="fill:none;stroke:#000000;stroke-width:0.32px;stroke-linecap:butt;stroke-linejoin:miter;stroke-opacity:1"
   d="m 50.74264,118.25581 59.32262,0.31911 -0.52431,-38.884654 2.92898,2.097772 9.48609,-10.126355 -18.91114,-16.506886 0.25128,-18.942183 H 88.347232 l 0.0311,6.143764 -8.995802,-8.38576 -40.852636,35.917084 7.13064,8.9948 4.327756,-0.09444 -0.02496,39.035628 z"
   id="path658" /><path
   style="fill:#d4aa00;fill-rule:evenodd;stroke-width:0.471229"
   d="m 388.0569,369.34195 c -54.2882,-0.28232 -79.09712,-0.56701 -79.99108,-0.91793 l -1.29588,-0.50868 v -61.24166 -61.24165 l -6.89757,0.13103 -6.89756,0.13102 -10.78216,-13.6143 c -8.50353,-10.73715 -10.65584,-13.73005 -10.18447,-14.16202 11.44878,-10.4919 125.95893,-110.47407 126.33827,-110.30965 0.30179,0.13081 6.80428,6.08619 14.44996,13.23417 l 13.90125,12.99634 0.12718,-9.90063 0.12718,-9.90062 h 22.63528 22.63528 l -0.25824,12.84098 c -0.14203,7.06254 -0.36978,20.26284 -0.50611,29.33399 l -0.24788,16.49301 29.4584,25.67095 29.45839,25.67096 -2.52967,2.60277 c -1.39132,1.43152 -7.78354,8.22218 -14.20493,15.09034 -6.4214,6.86816 -11.92145,12.46479 -12.22234,12.43696 -0.30089,-0.0279 -2.51542,-1.47475 -4.92118,-3.21537 -2.40576,-1.74061 -4.44663,-3.09224 -4.53526,-3.00361 -0.1533,0.15331 0.8823,83.44081 1.36261,109.58649 l 0.22724,12.36976 -13.27575,-0.0817 c -7.30166,-0.0449 -48.68859,-0.26586 -91.97096,-0.49095 z m 94.59758,-74.86381 0.11941,-67.42556 8.94335,7.81512 c 4.91883,4.29832 9.1708,7.81512 9.44881,7.81512 0.278,0 4.78561,-4.43238 10.0169,-9.84974 l 9.51144,-9.84974 -27.05856,-23.48969 -27.05855,-23.4897 -0.0304,-27.44908 -0.0304,-27.44907 h -16.48567 -16.48567 l -0.12515,13.17334 -0.12514,13.17335 -16.96424,-15.55315 c -9.33033,-8.55423 -17.20907,-15.66345 -17.50832,-15.79827 -0.29925,-0.13482 -27.08097,23.53738 -59.51495,52.60488 l -58.97086,52.85 3.45767,3.84843 c 1.90172,2.11663 5.96186,6.65812 9.02253,10.0922 3.06068,3.43408 5.72124,6.24379 5.91235,6.24379 0.19111,0 4.25204,-3.52706 9.02428,-7.8379 l 8.6768,-7.83789 0.1194,67.91956 0.1194,67.91957 h 82.93307 82.93307 z"
   id="path729"
   transform="matrix(0.32,0,0,0.32,-48,0)" /></svg>
